<svg width="127" height="111" viewBox="0 0 127 111" fill="none" xmlns="http://www.w3.org/2000/svg">
<g filter="url(#filter0_d_2_122)">
<rect x="30" y="18" width="67" height="67" rx="33.5" fill="white" fill-opacity="0.4" shape-rendering="crispEdges"/>
<rect x="37.0526" y="25.0526" width="52.8947" height="52.8947" rx="26.4474" fill="white"/>
<path d="M75.2867 47.6033C75.2867 55.8549 67.6522 60.7213 64.2317 61.8849C63.8262 62.026 63.1738 62.026 62.7683 61.8849C61.3048 61.3913 59.0657 60.2099 57.0028 58.3939C54.217 55.9431 51.7133 52.3286 51.7133 47.6033C51.7133 43.9536 54.6401 41.0092 58.2546 41.0092C60.4056 41.0092 62.3099 42.0494 63.5088 43.6362C64.6901 42.0494 66.5943 41.0092 68.7454 41.0092C69.6799 41.0092 70.5614 41.2031 71.3725 41.5557C73.6822 42.5784 75.2867 44.8881 75.2867 47.6033Z" fill="#FE4C4C"/>
</g>
<defs>
<filter id="filter0_d_2_122" x="0" y="0.342106" width="127" height="127" filterUnits="userSpaceOnUse" color-interpolation-filters="sRGB">
<feFlood flood-opacity="0" result="BackgroundImageFix"/>
<feColorMatrix in="SourceAlpha" type="matrix" values="0 0 0 0 0 0 0 0 0 0 0 0 0 0 0 0 0 0 127 0" result="hardAlpha"/>
<feOffset dy="12.3421"/>
<feGaussianBlur stdDeviation="15"/>
<feComposite in2="hardAlpha" operator="out"/>
<feColorMatrix type="matrix" values="0 0 0 0 0 0 0 0 0 0 0 0 0 0 0 0 0 0 0.08 0"/>
<feBlend mode="normal" in2="BackgroundImageFix" result="effect1_dropShadow_2_122"/>
<feBlend mode="normal" in="SourceGraphic" in2="effect1_dropShadow_2_122" result="shape"/>
</filter>
</defs>
</svg>
